<svg width="1048" height="642" viewBox="0 0 1048 642" fill="none" xmlns="http://www.w3.org/2000/svg">
<g clip-path="url(#clip0_121_845)">
<path d="M802.294 293.482C797.176 293.029 791.924 292.674 786.5 292.466C708.667 289.517 730.96 344.374 692.898 374.32" stroke="black" stroke-width="1.1" stroke-miterlimit="10" stroke-dasharray="5.52 5.52"/>
<path d="M1014.66 155.271C1013.43 178.375 977.573 258.984 935.149 279.555C890.999 301.045 860.561 299.576 828.557 296.15" stroke="black" stroke-width="1.1" stroke-miterlimit="10" stroke-dasharray="5.52 5.52"/>
<path d="M685.3 380.681C672.593 400.016 600.981 451.547 553.972 447.922C505.009 444.219 479.464 427.604 453.553 408.508" stroke="black" stroke-width="1.1" stroke-miterlimit="10" stroke-dasharray="5.52 5.52"/>
<path d="M793.148 313.074C793.148 313.074 819.105 335.787 821.7 338.32C825.03 341.575 821.382 346.25 817.452 343.46C813.779 340.866 791.63 320.722 788.606 317.761C788.298 317.463 788.052 317.107 787.881 316.714C787.711 316.321 787.62 315.898 787.613 315.469C787.606 315.041 787.684 314.615 787.842 314.217C787.999 313.819 788.234 313.455 788.532 313.147C788.831 312.84 789.187 312.594 789.58 312.423C789.973 312.253 790.396 312.162 790.825 312.155C791.254 312.148 791.679 312.226 792.078 312.384C792.477 312.541 792.84 312.776 793.148 313.074Z" stroke="#069ADF" stroke-width="0.78" stroke-miterlimit="10"/>
<path d="M810.265 327.747C810.265 327.747 822.508 319.841 824.528 318.397C826.549 316.953 824.896 315.656 823.304 316.036C816.546 317.614 803.812 322.338 803.812 322.338" stroke="#069ADF" stroke-width="0.78" stroke-miterlimit="10"/>
<path d="M805.012 332.862C805.012 332.862 798.499 345.944 797.262 348.049C796.025 350.154 794.581 348.722 794.813 347.107C795.646 340.217 798.952 327.049 798.952 327.049" stroke="#069ADF" stroke-width="0.78" stroke-miterlimit="10"/>
<path d="M819.166 336.02L824.639 334.416C826.071 333.964 827.442 335.359 825.863 336.595C823.916 338.161 822.484 339.25 822.484 339.25" stroke="#069ADF" stroke-width="0.78" stroke-miterlimit="10"/>
<path d="M814.427 341.037C814.427 341.037 813.619 345.602 813.423 346.654C813.142 348.123 814.648 349.334 815.738 347.645C817.072 345.541 818.003 343.974 818.003 343.974" stroke="#069ADF" stroke-width="0.78" stroke-miterlimit="10"/>
<path d="M804.473 268.517C804.473 274.33 814.991 288.293 814.991 288.293C814.991 288.293 825.508 274.33 825.508 268.517C825.508 265.729 824.4 263.055 822.427 261.084C820.455 259.112 817.78 258.005 814.991 258.005C812.201 258.005 809.526 259.112 807.554 261.084C805.581 263.055 804.473 265.729 804.473 268.517Z" stroke="black" stroke-width="1.5" stroke-linecap="round" stroke-linejoin="round"/>
<path d="M814.991 272.739C817.574 272.739 819.668 270.646 819.668 268.064C819.668 265.483 817.574 263.39 814.991 263.39C812.408 263.39 810.314 265.483 810.314 268.064C810.314 270.646 812.408 272.739 814.991 272.739Z" stroke="black" stroke-width="1.5" stroke-linecap="round" stroke-linejoin="round"/>
<path d="M814.991 296.456C816.566 296.456 817.843 295.179 817.843 293.604C817.843 292.03 816.566 290.753 814.991 290.753C813.415 290.753 812.138 292.03 812.138 293.604C812.138 295.179 813.415 296.456 814.991 296.456Z" fill="black"/>
</g>
<path d="M518.195 431.327C518.195 437.139 528.712 451.102 528.712 451.102C528.712 451.102 539.229 437.139 539.229 431.327C539.229 428.539 538.121 425.865 536.149 423.893C534.177 421.922 531.502 420.814 528.712 420.814C525.923 420.814 523.248 421.922 521.275 423.893C519.303 425.865 518.195 428.539 518.195 431.327Z" stroke="black" stroke-width="1.5" stroke-linecap="round" stroke-linejoin="round"/>
<path d="M528.712 435.548C531.295 435.548 533.389 433.455 533.389 430.873C533.389 428.291 531.295 426.198 528.712 426.198C526.129 426.198 524.035 428.291 524.035 430.873C524.035 433.455 526.129 435.548 528.712 435.548Z" stroke="black" stroke-width="1.5" stroke-linecap="round" stroke-linejoin="round"/>
<path d="M528.712 459.265C530.288 459.265 531.565 457.988 531.565 456.413C531.565 454.839 530.288 453.562 528.712 453.562C527.137 453.562 525.859 454.839 525.859 456.413C525.859 457.988 527.137 459.265 528.712 459.265Z" fill="black"/>
<path d="M179.882 490.388C174.047 482.657 128.284 470.516 89.8439 483.042C49.823 496.049 25.6503 510.87 0.628045 527.131" stroke="black" stroke-width="1.1" stroke-miterlimit="10" stroke-dasharray="5.52 5.52"/>
<path d="M557.318 448.491C555.777 449.109 402.462 495.929 371.376 479.131C339.023 461.653 209.884 505.339 186.974 491.738" stroke="black" stroke-width="1.1" stroke-miterlimit="10" stroke-dasharray="5.52 5.52"/>
<defs>
<clipPath id="clip0_121_845">
<rect width="624.129" height="594.184" fill="white" transform="translate(562.871)"/>
</clipPath>
</defs>
</svg>
