<svg width="1420" height="560" viewBox="0 0 1420 560" fill="none" xmlns="http://www.w3.org/2000/svg">
<g clip-path="url(#clip0_121_681)">
<path d="M133.09 186.21C136.337 185.922 139.669 185.697 143.111 185.565C192.494 183.694 178.35 218.5 202.5 237.5" stroke="black" stroke-width="1.1" stroke-miterlimit="10" stroke-dasharray="5.52 5.52"/>
<path d="M-1.65258 98.5166C-0.875746 113.176 21.8778 164.321 48.7952 177.373C76.8079 191.008 96.12 190.076 116.427 187.902" stroke="black" stroke-width="1.1" stroke-miterlimit="10" stroke-dasharray="5.52 5.52"/>
<path d="M207.32 241.536C215.383 253.804 260.82 286.5 290.646 284.199C321.712 281.85 337.92 271.308 354.36 259.192" stroke="black" stroke-width="1.1" stroke-miterlimit="10" stroke-dasharray="5.52 5.52"/>
<path d="M138.893 198.64C138.893 198.64 122.424 213.051 120.777 214.659C118.664 216.724 120.979 219.69 123.472 217.92C125.803 216.274 139.856 203.493 141.775 201.614C141.97 201.425 142.126 201.199 142.234 200.95C142.342 200.7 142.4 200.432 142.405 200.16C142.409 199.888 142.36 199.618 142.259 199.366C142.159 199.113 142.011 198.882 141.821 198.687C141.632 198.492 141.406 198.336 141.157 198.228C140.907 198.12 140.639 198.062 140.367 198.057C140.095 198.053 139.824 198.102 139.572 198.202C139.319 198.302 139.088 198.451 138.893 198.64Z" stroke="black" stroke-width="0.78" stroke-miterlimit="10"/>
<path d="M128.033 207.95C128.033 207.95 120.264 202.934 118.982 202.018C117.701 201.102 118.749 200.279 119.759 200.519C124.047 201.521 132.126 204.518 132.126 204.518" stroke="black" stroke-width="0.78" stroke-miterlimit="10"/>
<path d="M131.365 211.196C131.365 211.196 135.498 219.496 136.283 220.832C137.067 222.167 137.984 221.259 137.836 220.234C137.308 215.862 135.211 207.508 135.211 207.508" stroke="black" stroke-width="0.78" stroke-miterlimit="10"/>
<path d="M122.385 213.199L118.912 212.182C118.003 211.895 117.133 212.78 118.135 213.564C119.371 214.558 120.28 215.249 120.28 215.249" stroke="black" stroke-width="0.78" stroke-miterlimit="10"/>
<path d="M125.391 216.382C125.391 216.382 125.904 219.278 126.028 219.946C126.207 220.878 125.251 221.647 124.56 220.575C123.713 219.24 123.123 218.246 123.123 218.246" stroke="black" stroke-width="0.78" stroke-miterlimit="10"/>
<path d="M131.707 170.37C131.707 174.058 125.034 182.917 125.034 182.917C125.034 182.917 118.361 174.058 118.361 170.37C118.361 168.601 119.064 166.905 120.315 165.654C121.567 164.403 123.264 163.7 125.034 163.7C126.804 163.7 128.501 164.403 129.753 165.654C131.004 166.905 131.707 168.601 131.707 170.37Z" stroke="#069ADF" stroke-width="1.5" stroke-linecap="round" stroke-linejoin="round"/>
<path d="M125.034 173.048C123.395 173.048 122.066 171.72 122.066 170.082C122.066 168.444 123.395 167.116 125.034 167.116C126.673 167.116 128.001 168.444 128.001 170.082C128.001 171.72 126.673 173.048 125.034 173.048Z" stroke="#069ADF" stroke-width="1.5" stroke-linecap="round" stroke-linejoin="round"/>
<path d="M125.034 188.096C124.034 188.096 123.224 187.286 123.224 186.287C123.224 185.288 124.034 184.478 125.034 184.478C126.034 184.478 126.844 185.288 126.844 186.287C126.844 187.286 126.034 188.096 125.034 188.096Z" fill="#069ADF"/>
</g>
<path d="M313.346 273.67C313.346 277.358 306.673 286.217 306.673 286.217C306.673 286.217 300 277.358 300 273.67C300 271.901 300.703 270.204 301.954 268.954C303.206 267.703 304.903 267 306.673 267C308.443 267 310.14 267.703 311.391 268.954C312.643 270.204 313.346 271.901 313.346 273.67Z" stroke="black" stroke-width="1.5" stroke-linecap="round" stroke-linejoin="round"/>
<path d="M306.673 276.348C305.034 276.348 303.705 275.02 303.705 273.382C303.705 271.744 305.034 270.416 306.673 270.416C308.312 270.416 309.64 271.744 309.64 273.382C309.64 275.02 308.312 276.348 306.673 276.348Z" stroke="black" stroke-width="1.5" stroke-linecap="round" stroke-linejoin="round"/>
<path d="M306.673 291.396C305.673 291.396 304.863 290.586 304.863 289.587C304.863 288.588 305.673 287.778 306.673 287.778C307.673 287.778 308.483 288.588 308.483 289.587C308.483 290.586 307.673 291.396 306.673 291.396Z" fill="black"/>
<path d="M528 311.144C531.702 306.238 560.738 298.535 585.128 306.483C610.52 314.735 625.858 324.139 641.734 334.456" stroke="black" stroke-width="1.1" stroke-miterlimit="10" stroke-dasharray="5.52 5.52"/>
<path d="M288.523 284.561C289.501 284.953 386.776 314.659 406.5 304.001C427.028 292.911 508.964 320.629 523.5 312" stroke="black" stroke-width="1.1" stroke-miterlimit="10" stroke-dasharray="5.52 5.52"/>
<path d="M1417.67 559.396C1416.67 559.396 1415.86 558.586 1415.86 557.587C1415.86 556.588 1416.67 555.778 1417.67 555.778C1418.67 555.778 1419.48 556.588 1419.48 557.587C1419.48 558.586 1418.67 559.396 1417.67 559.396Z" fill="black"/>
<defs>
<clipPath id="clip0_121_681">
<rect width="396" height="377" fill="white" transform="matrix(-1 0 0 1 285 0)"/>
</clipPath>
</defs>
</svg>
